<svg xmlns="http://www.w3.org/2000/svg" width="800" height="600" viewBox="0 0 800 600">
  <defs><linearGradient id="b2" x1="0" y1="0" x2="1" y2="1"><stop offset="0%" stop-color="#f5f5f0"/><stop offset="100%" stop-color="#e8e8e0"/></linearGradient></defs>
  <rect width="800" height="600" fill="url(#b2)"/>
  <rect x="0" y="0" width="800" height="600" fill="none" stroke="#e8672b" stroke-width="3"/>
  <!-- Modern kitchen cabinets -->
  <rect x="50" y="180" width="110" height="130" rx="4" fill="#2a2a2a"/>
  <rect x="170" y="180" width="110" height="130" rx="4" fill="#2a2a2a"/>
  <rect x="290" y="180" width="110" height="130" rx="4" fill="#2a2a2a"/>
  <rect x="410" y="180" width="110" height="130" rx="4" fill="#2a2a2a"/>
  <!-- Handles -->
  <rect x="140" y="220" width="3" height="40" rx="1" fill="#e8672b"/>
  <rect x="260" y="220" width="3" height="40" rx="1" fill="#e8672b"/>
  <rect x="380" y="220" width="3" height="40" rx="1" fill="#e8672b"/>
  <rect x="500" y="220" width="3" height="40" rx="1" fill="#e8672b"/>
  <!-- Countertop -->
  <rect x="50" y="310" width="470" height="22" fill="#e8672b"/>
  <rect x="50" y="332" width="470" height="5" fill="#c85a1f"/>
  <!-- Backsplash (tiled) -->
  <rect x="50" y="140" width="470" height="40" fill="#f5f5f0" stroke="#ddd" stroke-width="1"/>
  <g opacity="0.3"><rect x="55" y="145" width="20" height="20" fill="#e8672b"/><rect x="80" y="145" width="20" height="20" fill="#e8672b"/><rect x="105" y="145" width="20" height="20" fill="#e8672b"/></g>
  <!-- Modern sink -->
  <rect x="130" y="288" width="80" height="22" rx="4" fill="#fff" stroke="#ddd" stroke-width="1"/>
  <!-- Oven/hob -->
  <rect x="350" y="285" width="50" height="25" rx="3" fill="#333" stroke="#555" stroke-width="1"/>
  <circle cx="365" cy="298" r="6" fill="#555"/>
  <circle cx="385" cy="298" r="6" fill="#555"/>
  <!-- Island -->
  <rect x="560" y="250" width="160" height="80" rx="5" fill="#2a2a2a"/>
  <rect x="560" y="330" width="160" height="5" fill="#e8672b"/>
  <!-- After label -->
  <rect x="300" y="30" width="200" height="50" rx="25" fill="#e8672b"/>
  <text x="400" y="62" text-anchor="middle" fill="#fff" font-family="Arial, sans-serif" font-size="22" font-weight="bold">DESPUÉS</text>
  <text x="400" y="555" text-anchor="middle" fill="#666" font-family="Arial, sans-serif" font-size="16">Cocina moderna - Instalación completa</text>
</svg>
