<svg xmlns="http://www.w3.org/2000/svg" width="800" height="600" viewBox="0 0 800 600">
  <defs><linearGradient id="b2" x1="0" y1="0" x2="1" y2="1"><stop offset="0%" stop-color="#f5f5f0"/><stop offset="100%" stop-color="#e8e8e0"/></linearGradient></defs>
  <rect width="800" height="600" fill="url(#b2)"/><rect x="0" y="0" width="800" height="600" fill="none" stroke="#e8672b" stroke-width="3"/>
  <rect x="100" y="180" width="600" height="200" fill="#f0f0ea" stroke="#ddd" stroke-width="1"/>
  <rect x="120" y="200" width="80" height="80" rx="5" fill="#2a2a2a"/>
  <circle cx="160" cy="240" r="20" fill="#e8672b" opacity="0.8"/>
  <rect x="220" y="200" width="80" height="80" rx="5" fill="#2a2a2a"/>
  <circle cx="260" cy="240" r="20" fill="#e8672b" opacity="0.8"/>
  <rect x="320" y="200" width="80" height="80" rx="5" fill="#2a2a2a"/>
  <circle cx="360" cy="240" r="20" fill="#e8672b" opacity="0.8"/>
  <rect x="420" y="200" width="80" height="80" rx="5" fill="#2a2a2a"/>
  <circle cx="460" cy="240" r="20" fill="#e8672b" opacity="0.8"/>
  <rect x="520" y="200" width="80" height="80" rx="5" fill="#2a2a2a"/>
  <circle cx="560" cy="240" r="20" fill="#e8672b" opacity="0.8"/>
  <rect x="100" y="300" width="600" height="60" fill="#e8672b" rx="4"/>
  <rect x="300" y="30" width="200" height="50" rx="25" fill="#e8672b"/>
  <text x="400" y="62" text-anchor="middle" fill="#fff" font-family="Arial, sans-serif" font-size="22" font-weight="bold">DESPUÉS</text>
  <text x="400" y="555" text-anchor="middle" fill="#666" font-family="Arial, sans-serif" font-size="16">Electricidad - Instalación renovada</text>
</svg>
