<svg xmlns="http://www.w3.org/2000/svg" width="800" height="600" viewBox="0 0 800 600">
  <defs><linearGradient id="b2" x1="0" y1="0" x2="1" y2="1"><stop offset="0%" stop-color="#f5f5f0"/><stop offset="100%" stop-color="#e8e8e0"/></linearGradient></defs>
  <rect width="800" height="600" fill="url(#b2)"/><rect x="0" y="0" width="800" height="600" fill="none" stroke="#e8672b" stroke-width="3"/>
  <rect x="60" y="180" width="680" height="15" rx="3" fill="#e8672b"/>
  <rect x="60" y="195" width="680" height="120" fill="#f0f0ea" stroke="#ddd" stroke-width="1"/>
  <rect x="60" y="315" width="680" height="15" rx="3" fill="#e8672b"/>
  <rect x="100" y="210" width="60" height="60" fill="#2a2a2a" rx="3"/>
  <rect x="180" y="210" width="60" height="60" fill="#2a2a2a" rx="3"/>
  <rect x="260" y="210" width="60" height="60" fill="#2a2a2a" rx="3"/>
  <rect x="100" y="280" width="220" height="20" fill="#e8672b" rx="2"/>
  <!-- Tiles pattern -->
  <g opacity="0.06">
    <rect x="60" y="350" width="40" height="40" fill="#e8672b" stroke="#e8672b" stroke-width="1"/>
    <rect x="100" y="350" width="40" height="40" fill="none" stroke="#e8672b" stroke-width="1"/>
  </g>
  <rect x="300" y="30" width="200" height="50" rx="25" fill="#e8672b"/>
  <text x="400" y="62" text-anchor="middle" fill="#fff" font-family="Arial, sans-serif" font-size="22" font-weight="bold">DESPUÉS</text>
  <text x="400" y="555" text-anchor="middle" fill="#666" font-family="Arial, sans-serif" font-size="16">Fontanería - Instalación moderna</text>
</svg>
