<svg xmlns="http://www.w3.org/2000/svg" width="800" height="600" viewBox="0 0 800 600">
  <defs><linearGradient id="b1" x1="0" y1="0" x2="1" y2="1"><stop offset="0%" stop-color="#2a2a2a"/><stop offset="100%" stop-color="#1a1a1a"/></linearGradient></defs>
  <rect width="800" height="600" fill="url(#b1)"/>
  <rect x="0" y="0" width="800" height="600" fill="none" stroke="#e8672b" stroke-width="3"/>
  <!-- Old kitchen cabinets -->
  <rect x="50" y="200" width="100" height="120" rx="3" fill="#5a4a30" stroke="#444" stroke-width="1.5"/>
  <rect x="160" y="200" width="100" height="120" rx="3" fill="#5a4a30" stroke="#444" stroke-width="1.5"/>
  <rect x="270" y="200" width="100" height="120" rx="3" fill="#5a4a30" stroke="#444" stroke-width="1.5"/>
  <rect x="380" y="200" width="100" height="120" rx="3" fill="#5a4a30" stroke="#444" stroke-width="1.5"/>
  <rect x="490" y="200" width="100" height="120" rx="3" fill="#5a4a30" stroke="#444" stroke-width="1.5"/>
  <!-- Old countertop -->
  <rect x="50" y="310" width="540" height="20" fill="#6a5a40" stroke="#555" stroke-width="1"/>
  <!-- Old backsplash (stained) -->
  <rect x="50" y="150" width="540" height="50" fill="#3a3020" opacity="0.7"/>
  <ellipse cx="200" cy="175" rx="20" ry="15" fill="#4a3020" opacity="0.5"/>
  <ellipse cx="400" cy="170" rx="25" ry="12" fill="#4a3020" opacity="0.4"/>
  <!-- Old sink -->
  <rect x="200" y="290" width="90" height="25" rx="5" fill="#555" stroke="#666" stroke-width="1"/>
  <!-- Before label -->
  <rect x="300" y="30" width="200" height="50" rx="25" fill="#e8672b" opacity="0.9"/>
  <text x="400" y="62" text-anchor="middle" fill="#fff" font-family="Arial, sans-serif" font-size="22" font-weight="bold">ANTES</text>
  <text x="400" y="530" text-anchor="middle" fill="#aaa" font-family="Arial, sans-serif" font-size="16">Cocina original</text>
</svg>
