<svg xmlns="http://www.w3.org/2000/svg" width="800" height="600" viewBox="0 0 800 600">
  <defs><linearGradient id="b2" x1="0" y1="0" x2="1" y2="1"><stop offset="0%" stop-color="#f5f5f0"/><stop offset="100%" stop-color="#e8e8e0"/></linearGradient></defs>
  <rect width="800" height="600" fill="url(#b2)"/><rect x="0" y="0" width="800" height="600" fill="none" stroke="#e8672b" stroke-width="3"/>
  <rect x="60" y="120" width="220" height="150" rx="5" fill="#f0f0ea" stroke="#ddd" stroke-width="1"/>
  <rect x="300" y="120" width="220" height="150" rx="5" fill="#f0f0ea" stroke="#ddd" stroke-width="1"/>
  <rect x="540" y="120" width="220" height="150" rx="5" fill="#f0f0ea" stroke="#ddd" stroke-width="1"/>
  <rect x="60" y="290" width="220" height="150" rx="5" fill="#f0f0ea" stroke="#ddd" stroke-width="1"/>
  <rect x="300" y="290" width="220" height="150" rx="5" fill="#f0f0ea" stroke="#ddd" stroke-width="1"/>
  <rect x="540" y="290" width="220" height="150" rx="5" fill="#f0f0ea" stroke="#ddd" stroke-width="1"/>
  <!-- Windows on rooms -->
  <rect x="140" y="150" width="60" height="60" rx="3" fill="#d4e8f4" stroke="#ccc" stroke-width="1" opacity="0.6"/>
  <rect x="380" y="150" width="60" height="60" rx="3" fill="#d4e8f4" stroke="#ccc" stroke-width="1" opacity="0.6"/>
  <rect x="620" y="150" width="60" height="60" rx="3" fill="#d4e8f4" stroke="#ccc" stroke-width="1" opacity="0.6"/>
  <rect x="140" y="320" width="60" height="60" rx="3" fill="#d4e8f4" stroke="#ccc" stroke-width="1" opacity="0.6"/>
  <rect x="380" y="320" width="60" height="60" rx="3" fill="#d4e8f4" stroke="#ccc" stroke-width="1" opacity="0.6"/>
  <rect x="620" y="320" width="60" height="60" rx="3" fill="#d4e8f4" stroke="#ccc" stroke-width="1" opacity="0.6"/>
  <!-- Orange accent lines -->
  <rect x="60" y="460" width="700" height="4" rx="2" fill="#e8672b"/>
  <rect x="300" y="30" width="200" height="50" rx="25" fill="#e8672b"/>
  <text x="400" y="62" text-anchor="middle" fill="#fff" font-family="Arial, sans-serif" font-size="22" font-weight="bold">DESPUÉS</text>
  <text x="400" y="555" text-anchor="middle" fill="#666" font-family="Arial, sans-serif" font-size="16">Piso completo reformado - Llave en mano</text>
</svg>
